<svg width="401" height="623" viewBox="0 0 401 623" fill="none" xmlns="http://www.w3.org/2000/svg">
<path d="M357.568 321.222C332.383 303.983 304.016 291.934 274.123 285.778L244.568 279.444V157.222C244.882 157.606 245.27 157.921 245.709 158.151C246.148 158.38 246.629 158.517 247.123 158.556C247.288 158.538 247.455 158.558 247.611 158.613C247.767 158.668 247.909 158.758 248.026 158.875C248.144 158.992 248.233 159.134 248.288 159.29C248.344 159.446 248.363 159.613 248.346 159.778C260.039 165.06 269.959 173.604 276.916 184.385C283.874 195.165 287.572 207.725 287.568 220.556H385.012C383.235 169.889 364.346 131.667 328.012 104.111C303.379 85.8222 274.798 73.5679 244.568 68.3333V0H155.679V65.7778C118.951 68.5336 83.9962 82.671 55.679 106.222C40.1353 119.685 27.7614 136.418 19.4437 155.224C11.1261 174.03 7.07065 194.443 7.56787 215C7.56787 262.259 24.0123 297.259 56.9012 320C74.2345 332.555 107.123 344.444 155.679 355.556V486.889C140.1 483.115 126.011 474.755 115.235 462.889C104.301 449.073 97.6912 432.336 96.2345 414.778H0.123425C-0.816395 437.296 3.6217 459.715 13.0702 480.177C22.5188 500.639 36.7059 518.556 54.4568 532.444C84.2018 554.118 119.096 567.639 155.679 571.667V622.222H244.568V572.889C282.847 569.309 319.293 554.808 349.568 531.111C365.751 517.536 378.69 500.511 387.438 481.285C396.186 462.059 400.52 441.119 400.123 420C400.123 377.037 385.938 344.111 357.568 321.222ZM155.679 258C145.217 255.335 135.054 251.612 125.346 246.889C117.926 243.432 111.686 237.872 107.4 230.899C103.113 223.926 100.969 215.847 101.235 207.667C100.87 198.772 102.918 189.945 107.163 182.121C111.408 174.296 117.691 167.766 125.346 163.222C134.887 157.719 145.076 153.427 155.679 150.444V258ZM260.679 484.333C255.782 486.244 250.67 487.55 245.457 488.222V375.556C258.189 379.301 270.482 384.405 282.123 390.778C288.768 394.626 294.267 400.175 298.056 406.854C301.844 413.533 303.785 421.1 303.679 428.778C303.383 455.667 288.901 474.185 260.235 484.333H260.679Z" fill="#FFD200" fill-opacity="0.1"/>
</svg>
