<svg width="100" height="100" viewBox="0 0 100 100" fill="none" xmlns="http://www.w3.org/2000/svg">
<g clip-path="url(#clip0_50_12)">
<path d="M-2.18561e-06 49.9991C-9.80522e-07 77.5683 22.4317 100 50.0009 100C77.572 100 100 77.5683 100 49.9991C100 22.4299 77.572 -3.39078e-06 50.0009 -2.18561e-06C22.4317 -9.80522e-07 -3.3907e-06 22.4299 -2.18561e-06 49.9991ZM92.6803 49.9991C92.6803 53.6533 92.1723 57.1815 91.3047 60.567C91.2342 60.5632 91.1675 60.5466 91.0952 60.5466L48.0746 60.5466L50.5516 58.0696C52.096 56.5252 52.096 54.0223 50.5516 52.476C49.0072 50.9316 46.5024 50.9316 44.958 52.476L35.7306 61.7035L35.7269 61.7072L32.931 64.5012L35.7269 67.2952L35.7287 67.2989L45.6162 77.1863C47.1606 78.7307 49.6653 78.7307 51.2097 77.1863C51.9829 76.4132 52.3685 75.4028 52.3685 74.3905C52.3685 73.3782 51.9829 72.3659 51.2097 71.5946L48.0746 68.4576L88.4272 68.4576C81.5247 82.7651 66.917 92.6822 50.0009 92.6822C26.4661 92.6822 7.31965 73.5339 7.31965 50.0009C7.31965 47.266 7.58668 44.5937 8.08202 42C8.10549 41.8771 8.12947 41.7544 8.15395 41.6319C8.41166 41.6838 8.67308 41.7116 8.94747 41.7116L51.968 41.7116L49.4911 44.1886C47.9467 45.733 47.9467 48.2378 49.4911 49.7822C51.0355 51.3265 53.5402 51.3265 55.0846 49.7822L64.3121 40.5566L64.3158 40.5529L67.1116 37.7589L64.3158 34.9649L64.3139 34.9611L54.4265 25.0737C52.8821 23.5293 50.3773 23.5293 48.8329 25.0737C47.2885 26.6181 47.2885 29.121 48.8329 30.6673L51.968 33.8024L10.5327 33.8024C10.5789 33.6902 10.6256 33.5782 10.6727 33.4664C17.1463 18.1226 32.3292 7.31779 50.0009 7.31779C73.5339 7.31594 92.6803 26.4661 92.6803 49.9991Z" fill="white"/>
<path d="M62.0607 39.0607C62.6464 38.4749 62.6464 37.5251 62.0607 36.9393L52.5147 27.3934C51.9289 26.8076 50.9792 26.8076 50.3934 27.3934C49.8076 27.9792 49.8076 28.9289 50.3934 29.5147L58.8787 38L50.3934 46.4853C49.8076 47.0711 49.8076 48.0208 50.3934 48.6066C50.9792 49.1924 51.9289 49.1924 52.5147 48.6066L62.0607 39.0607ZM11 39.5H61V36.5H11V39.5Z" fill="black"/>
</g>
<defs>
<clipPath id="clip0_50_12">
<rect width="100" height="100" fill="white" transform="translate(0 100) rotate(-90)"/>
</clipPath>
</defs>
</svg>
