<svg width="401" height="623" viewBox="0 0 401 623" fill="none" xmlns="http://www.w3.org/2000/svg">
<path d="M270.809 103.355C240.923 103.356 216.304 113.219 196.952 132.945C177.6 152.394 165.107 180.734 159.473 217.964H307.554V291.314H153.961L153.226 305.9V325.488L153.961 339.24H284.404V413.423H160.207C172.7 480.938 212.017 514.696 278.158 514.696C313.188 514.696 346.87 506.777 379.205 490.941V597.631C350.789 614.024 314.902 622.22 271.544 622.22C211.527 622.22 162.167 603.744 123.463 566.792C84.758 529.839 60.3838 478.717 50.3408 413.425H0V339.241H43.3589C42.3788 332.851 41.8892 324.238 41.8892 313.402L42.6238 291.314H0V217.964H48.8705C57.9338 150.728 82.3081 97.6606 121.992 58.763C161.677 19.588 211.282 0.000518517 270.808 0C316.861 0.000518517 359.975 11.3918 400.15 34.1744L364.14 130.862C347.237 122.249 331.437 115.581 316.739 110.857C302.041 105.857 286.731 103.356 270.809 103.355Z" fill="white"/>
</svg>
