<svg width="402" height="624" viewBox="0 0 402 624" fill="none" xmlns="http://www.w3.org/2000/svg">
<path d="M358.444 322.111C333.259 304.872 304.893 292.823 275 286.667L245.444 280.333V158.111C245.758 158.494 246.146 158.81 246.586 159.039C247.025 159.269 247.506 159.406 248 159.444C248.165 159.427 248.331 159.447 248.488 159.502C248.644 159.557 248.786 159.646 248.903 159.764C249.02 159.881 249.11 160.023 249.165 160.179C249.22 160.335 249.24 160.502 249.222 160.667C260.915 165.949 270.836 174.493 277.793 185.274C284.75 196.054 288.449 208.614 288.444 221.444H385.889C384.111 170.778 365.222 132.556 328.889 105C304.255 86.7111 275.675 74.4568 245.444 69.2222V0.888916H156.555V66.6667C119.828 69.4225 84.8726 83.5599 56.5554 107.111C41.0117 120.574 28.6378 137.307 20.3202 156.113C12.0026 174.919 7.94711 195.332 8.44433 215.889C8.44433 263.148 24.8888 298.148 57.7777 320.889C75.111 333.444 108 345.333 156.555 356.444V487.778C140.976 484.004 126.888 475.644 116.111 463.778C105.177 449.962 98.5677 433.225 97.111 415.667H0.99989C0.0600699 438.185 4.49817 460.604 13.9467 481.066C23.3952 501.528 37.5823 519.445 55.3332 533.333C85.0783 555.007 119.973 568.528 156.555 572.556V623.111H245.444V573.778C283.724 570.198 320.169 555.697 350.444 532C366.627 518.425 379.567 501.4 388.315 482.174C397.063 462.948 401.397 442.008 401 420.889C401 377.926 386.815 345 358.444 322.111ZM156.555 258.889C146.094 256.224 135.93 252.501 126.222 247.778C118.803 244.321 112.563 238.761 108.276 231.788C103.99 224.815 101.846 216.736 102.111 208.556C101.746 199.661 103.795 190.834 108.04 183.009C112.284 175.185 118.567 168.655 126.222 164.111C135.763 158.608 145.953 154.316 156.555 151.333V258.889ZM261.555 485.222C256.659 487.133 251.547 488.439 246.333 489.111V376.444C259.066 380.19 271.358 385.294 283 391.667C289.644 395.515 295.144 401.064 298.932 407.743C302.721 414.421 304.662 421.989 304.555 429.667C304.259 456.556 289.778 475.074 261.111 485.222H261.555Z" fill="white"/>
</svg>
